<?xml version="1.0" encoding="UTF-8" standalone="no"?>
<svg
   xmlns:osb="http://www.openswatchbook.org/uri/2009/osb"
   xmlns:dc="http://purl.org/dc/elements/1.1/"
   xmlns:cc="http://creativecommons.org/ns#"
   xmlns:rdf="http://www.w3.org/1999/02/22-rdf-syntax-ns#"
   xmlns:svg="http://www.w3.org/2000/svg"
   xmlns="http://www.w3.org/2000/svg"
   xmlns:sodipodi="http://sodipodi.sourceforge.net/DTD/sodipodi-0.dtd"
   xmlns:inkscape="http://www.inkscape.org/namespaces/inkscape"
   version="1.1"
   id="Layer_1"
   x="0px"
   y="0px"
   width="100.0px"
   height="100px"
   viewBox="0 0 200 200"
   enable-background="new 0 0 200 200"
   xml:space="preserve"
   inkscape:version="0.48.2 r9819"
   sodipodi:docname="noun_project_3126.svg"><metadata
   id="metadata3382"><rdf:RDF><cc:Work
       rdf:about=""><dc:format>image/svg+xml</dc:format><dc:type
         rdf:resource="http://purl.org/dc/dcmitype/StillImage" /></cc:Work></rdf:RDF></metadata><defs
   id="defs3380"><linearGradient
     id="linearGradient5915"
     osb:paint="solid"><stop
       style="stop-color:#000000;stop-opacity:1;"
       offset="0"
       id="stop5917" /></linearGradient><linearGradient
     id="linearGradient5909"
     osb:paint="solid"><stop
       style="stop-color:#e81830;stop-opacity:1;"
       offset="0"
       id="stop5911" /></linearGradient></defs><sodipodi:namedview
   pagecolor="#ffffff"
   bordercolor="#666666"
   borderopacity="1"
   objecttolerance="10"
   gridtolerance="10"
   guidetolerance="10"
   inkscape:pageopacity="0"
   inkscape:pageshadow="2"
   inkscape:window-width="1264"
   inkscape:window-height="738"
   id="namedview3378"
   showgrid="false"
   inkscape:zoom="3.509891"
   inkscape:cx="54.613265"
   inkscape:cy="57.62419"
   inkscape:window-x="0"
   inkscape:window-y="0"
   inkscape:window-maximized="0"
   inkscape:current-layer="g5972" />


<g
   id="g5967"><g
     id="g5972"
     transform="matrix(0.4870412,0,0,0.46622758,58.639445,52.237967)"><path
       d="m 124.874,39.053 c 9.107,0 16.479,-7.399 16.479,-16.506 0,-9.107 -7.371,-16.489 -16.479,-16.489 -9.108,0 -16.509,7.38 -16.509,16.486 0,9.109 7.4,16.509 16.509,16.509 z"
       id="path3374"
       style="fill:#ffffff"
       inkscape:connector-curvature="0" /><path
       d="m 162.663,73.26 -7.748,-6.995 -20.871,-20.864 c -1.949,-1.874 -4.578,-3.056 -7.529,-3.056 L 95.168,42.282 37.362,41.341 c -2.279,-0.317 -4.66,0.311 -6.543,1.927 -3.476,2.985 -3.881,8.212 -0.884,11.703 1.682,1.959 4.069,2.959 6.477,2.882 L 75.61,58.022 96.671,58.048 65.403,95.192 65.306,95.157 48.345,115.09 c -0.589,0.654 -1.118,1.383 -1.542,2.207 -2.756,5.196 -1.865,11.736 3.362,14.465 4.553,2.414 11.148,1.014 14.296,-2.826 l 21.357,-25.416 1.312,-1.643 2.375,1.688 -0.83,0.947 -58.89,71.346 c -0.632,0.619 -1.161,1.356 -1.618,2.163 -2.905,5.127 -1.108,11.632 4.023,14.539 4.469,2.532 10.019,1.479 13.288,-2.267 l 67.56,-79.342 0.05,0.014 27.942,-34.485 4.634,3.757 -19.057,23.849 c -1.182,1.547 -1.841,3.505 -1.739,5.6 0.229,4.74 4.259,8.373 8.977,8.145 2.071,-0.1 3.908,-0.896 5.326,-2.184 l 22.784,-28.368 c 7.348,-8.107 0.708,-14.019 0.708,-14.019 z"
       id="path3376"
       style="fill:#ffffff"
       inkscape:connector-curvature="0" /><path
       sodipodi:type="arc"
       style="fill:#ffffff;fill-opacity:1;stroke:#e81830;stroke-width:2.42740893;stroke-miterlimit:4;stroke-opacity:1;stroke-dasharray:none"
       id="path5953"
       sodipodi:cx="22.114094"
       sodipodi:cy="56.882565"
       sodipodi:rx="13.833931"
       sodipodi:ry="14.439796"
       d="m 35.948025,56.882565 c 0,7.974879 -6.193662,14.439796 -13.833931,14.439796 -7.640269,0 -13.8339312,-6.464917 -13.8339312,-14.439796 0,-7.97488 6.1936622,-14.439797 13.8339312,-14.439797 7.640269,0 13.833931,6.464917 13.833931,14.439797 z"
       transform="matrix(1.7441528,0,0,1.6709716,-11.360076,68.322335)" /></g><text
     xml:space="preserve"
     style="font-size:80px;font-style:normal;font-variant:normal;font-weight:normal;font-stretch:normal;line-height:125%;letter-spacing:0px;word-spacing:0px;fill:#000000;fill-opacity:1;stroke:none;font-family:Museo Slab;-inkscape-font-specification:Museo Slab"
     x="7.4076385"
     y="108.25925"
     id="text5977"
     sodipodi:linespacing="125%"><tspan
       sodipodi:role="line"
       id="tspan5979"
       x="7.4076385"
       y="108.25925"
       style="font-size:26px;font-style:normal;font-variant:normal;font-weight:normal;font-stretch:normal;font-family:Oswald;-inkscape-font-specification:Oswald;fill:#ffffff">Wesley                 Roth</tspan></text>
</g></svg>