<?xml version="1.0" encoding="UTF-8" standalone="no"?>
<svg
   xmlns:osb="http://www.openswatchbook.org/uri/2009/osb"
   xmlns:dc="http://purl.org/dc/elements/1.1/"
   xmlns:cc="http://creativecommons.org/ns#"
   xmlns:rdf="http://www.w3.org/1999/02/22-rdf-syntax-ns#"
   xmlns:svg="http://www.w3.org/2000/svg"
   xmlns="http://www.w3.org/2000/svg"
   xmlns:sodipodi="http://sodipodi.sourceforge.net/DTD/sodipodi-0.dtd"
   xmlns:inkscape="http://www.inkscape.org/namespaces/inkscape"
   version="1.1"
   id="Layer_1"
   x="0px"
   y="0px"
   width="100.0px"
   height="100px"
   viewBox="0 0 200 200"
   enable-background="new 0 0 200 200"
   xml:space="preserve"
   inkscape:version="0.48.2 r9819"
   sodipodi:docname="noun_project_3126.svg"><metadata
   id="metadata3382"><rdf:RDF><cc:Work
       rdf:about=""><dc:format>image/svg+xml</dc:format><dc:type
         rdf:resource="http://purl.org/dc/dcmitype/StillImage" /></cc:Work></rdf:RDF></metadata><defs
   id="defs3380"><linearGradient
     id="linearGradient5915"
     osb:paint="solid"><stop
       style="stop-color:#000000;stop-opacity:1;"
       offset="0"
       id="stop5917" /></linearGradient><linearGradient
     id="linearGradient5909"
     osb:paint="solid"><stop
       style="stop-color:#e81830;stop-opacity:1;"
       offset="0"
       id="stop5911" /></linearGradient></defs><sodipodi:namedview
   pagecolor="#ffffff"
   bordercolor="#666666"
   borderopacity="1"
   objecttolerance="10"
   gridtolerance="10"
   guidetolerance="10"
   inkscape:pageopacity="0"
   inkscape:pageshadow="2"
   inkscape:window-width="1264"
   inkscape:window-height="738"
   id="namedview3378"
   showgrid="false"
   inkscape:zoom="5.773645"
   inkscape:cx="63.187109"
   inkscape:cy="54.751555"
   inkscape:window-x="0"
   inkscape:window-y="0"
   inkscape:window-maximized="0"
   inkscape:current-layer="g5972" />


<g
   id="g5967"><g
     id="g5972"
     transform="matrix(0.4870412,0,0,0.46622758,58.639445,52.237967)"
     style="fill:#000000"><path
       d="m 151.86378,-0.62232846 c 14.38777,0 26.03448,-10.99787854 26.03448,-24.53452954 0,-13.536652 -11.64513,-24.509262 -26.03448,-24.509262 -14.38935,0 -26.08188,10.969638 -26.08188,24.504802 0,13.539624 11.69095,24.53898954 26.08188,24.53898954 z"
       id="path3374"
       style="fill:#000000"
       inkscape:connector-curvature="0" /><path
       d="M 211.56503,50.22298 199.32429,39.825607 166.35108,8.8133432 C 163.27193,6.0278283 159.11849,4.2709026 154.45633,4.2709026 L 104.93252,4.1772594 13.607247,2.7785563 C 10.00675,2.3073673 6.2451083,3.240827 3.2702357,5.6428505 -2.2213507,10.079757 -2.8611932,17.849173 1.8736412,23.038198 c 2.6573212,2.911859 6.4284422,4.39826 10.2327398,4.283807 l 61.927274,0.251201 33.273385,0.03865 -49.398995,55.210867 -0.153246,-0.05202 -26.795972,29.628424 c -0.930536,0.97211 -1.766281,2.05569 -2.436141,3.28049 -4.354089,7.72334 -2.946435,17.4444 5.311483,21.50078 7.193093,3.58818 17.612257,1.50721 22.58565,-4.20056 L 90.160846,95.201465 92.23362,92.759309 95.985782,95.268353 94.6745,96.675975 1.6366625,202.72472 c -0.99847023,0.92008 -1.83421511,2.01556 -2.55621021,3.21508 -4.58948749,7.62078 -1.75048269,17.28982 6.35576871,21.61078 7.060385,3.76357 15.828597,2.19839 20.993153,-3.36967 l 106.735206,-117.934 0.079,0.0208 44.1444,-51.258529 7.32106,5.584407 -30.10736,35.44917 c -1.86739,2.299462 -2.90851,5.209832 -2.74737,8.323842 0.36179,7.04554 6.72862,12.44564 14.18239,12.10674 3.27188,-0.14864 6.17408,-1.33182 8.41432,-3.2463 l 35.99548,-42.166218 c 11.6088,-12.050251 1.11854,-20.837852 1.11854,-20.837852 z"
       id="path3376"
       style="fill:#000000"
       inkscape:connector-curvature="0" /><path
       sodipodi:type="arc"
       style="fill:#000000;fill-opacity:1;stroke:#ffffff;stroke-width:2.42740893;stroke-miterlimit:4;stroke-opacity:1;stroke-dasharray:none"
       id="path5953"
       sodipodi:cx="22.114094"
       sodipodi:cy="56.882565"
       sodipodi:rx="13.833931"
       sodipodi:ry="14.439796"
       d="m 35.948025,56.882565 a 13.833931,14.439796 0 1 1 -27.6678622,0 13.833931,14.439796 0 1 1 27.6678622,0 z"
       transform="matrix(2.7555138,0,0,2.4837334,-63.366715,42.883632)" /></g></g></svg>